Normalized EMG Linear Envelopes
nRows=153
nColumns=4

endheader
time	 med_gas_r	  soleus_r	 tib_ant_r	
2.25	  0.008136	  0.019104	  0.001362	
2.3125	  0.009002	  0.021050	  0.001232	
2.375	  0.009691	  0.022370	  0.001159	
2.4375	  0.010024	  0.022745	  0.001162	
2.5	  0.009991	  0.022208	  0.001234	
2.5625	  0.009841	  0.021151	  0.001348	
2.625	  0.009837	  0.020184	  0.001457	
2.6875	  0.010047	  0.019750	  0.001508	
2.75	  0.010438	  0.019939	  0.001481	
2.8125	  0.010932	  0.020570	  0.001400	
2.875	  0.011399	  0.021232	  0.001306	
2.9375	  0.011723	  0.021457	  0.001225	
3	  0.011864	  0.021136	  0.001181	
3.0625	  0.011889	  0.020591	  0.001186	
3.125	  0.011868	  0.020190	  0.001223	
3.1875	  0.011790	  0.020132	  0.001263	
3.25	  0.011708	  0.020527	  0.001288	
3.3125	  0.011864	  0.021382	  0.001304	
3.375	  0.012589	  0.022489	  0.001333	
3.4375	  0.014112	  0.023471	  0.001395	
3.5	  0.016390	  0.024058	  0.001479	
3.5625	  0.019060	  0.024186	  0.001554	
3.625	  0.021508	  0.023771	  0.001583	
3.6875	  0.023106	  0.022749	  0.001558	
3.75	  0.023490	  0.021472	  0.001501	
3.8125	  0.022632	  0.020550	  0.001446	
3.875	  0.020867	  0.020189	  0.001408	
3.9375	  0.018821	  0.019968	  0.001369	
4	  0.017007	  0.019349	  0.001306	
4.0625	  0.015648	  0.018268	  0.001214	
4.125	  0.015260	  0.017236	  0.001126	
4.1875	  0.017306	  0.017226	  0.001134	
4.25	  0.024200	  0.019806	  0.001407	
4.3125	  0.038252	  0.027134	  0.002157	
4.375	  0.058857	  0.040633	  0.003466	
4.4375	  0.080864	  0.059670	  0.005160	
4.5	  0.099268	  0.083604	  0.007069	
4.5625	  0.115014	  0.113711	  0.009266	
4.625	  0.132115	  0.148592	  0.011621	
4.6875	  0.151171	  0.180231	  0.013445	
4.75	  0.169550	  0.200981	  0.014154	
4.8125	  0.185582	  0.213199	  0.013984	
4.875	  0.199723	  0.227988	  0.013632	
4.9375	  0.213046	  0.255218	  0.013598	
5	  0.226782	  0.295337	  0.014071	
5.0625	  0.242646	  0.338886	  0.015028	
5.125	  0.262242	  0.372250	  0.016381	
5.1875	  0.286778	  0.384886	  0.018218	
5.25	  0.316685	  0.375894	  0.020770	
5.3125	  0.349780	  0.356501	  0.024159	
5.375	  0.382141	  0.343529	  0.028273	
5.4375	  0.412373	  0.348054	  0.032798	
5.5	  0.440534	  0.369520	  0.037248	
5.5625	  0.463053	  0.399088	  0.040975	
5.625	  0.476504	  0.426599	  0.043480	
5.6875	  0.486773	  0.443187	  0.044943	
5.75	  0.503967	  0.442770	  0.046145	
5.8125	  0.525407	  0.429463	  0.047855	
5.875	  0.538477	  0.420263	  0.050435	
5.9375	  0.543920	  0.430686	  0.053546	
6	  0.556639	  0.458590	  0.055949	
6.0625	  0.582952	  0.488227	  0.056501	
6.125	  0.614625	  0.507484	  0.055597	
6.1875	  0.639482	  0.516693	  0.055020	
6.25	  0.647796	  0.523507	  0.056452	
6.3125	  0.637347	  0.533494	  0.060057	
6.375	  0.616693	  0.546286	  0.063943	
6.4375	  0.598364	  0.556015	  0.065487	
6.5	  0.588796	  0.552610	  0.063590	
6.5625	  0.586538	  0.530628	  0.059456	
6.625	  0.586303	  0.498694	  0.055374	
6.6875	  0.581407	  0.471005	  0.052906	
6.75	  0.567093	  0.452178	  0.052153	
6.8125	  0.545976	  0.437493	  0.052502	
6.875	  0.527472	  0.422865	  0.053497	
6.9375	  0.520271	  0.410826	  0.054953	
7	  0.525760	  0.408748	  0.056763	
7.0625	  0.537033	  0.421356	  0.058980	
7.125	  0.546725	  0.446963	  0.061771	
7.1875	  0.558576	  0.481590	  0.064871	
7.25	  0.584671	  0.520112	  0.067547	
7.3125	  0.630008	  0.552929	  0.069481	
7.375	  0.688186	  0.571408	  0.070848	
7.4375	  0.747736	  0.576588	  0.071457	
7.5	  0.793517	  0.575668	  0.070890	
7.5625	  0.809534	  0.574687	  0.069497	
7.625	  0.789171	  0.575769	  0.068172	
7.6875	  0.739231	  0.573451	  0.067261	
7.75	  0.674713	  0.558123	  0.066591	
7.8125	  0.615617	  0.529941	  0.066298	
7.875	  0.580688	  0.502120	  0.066580	
7.9375	  0.573553	  0.487358	  0.066901	
8	  0.579831	  0.487152	  0.066233	
8.0625	  0.582362	  0.493986	  0.063979	
8.125	  0.576432	  0.498705	  0.060559	
8.1875	  0.569855	  0.496660	  0.057176	
8.25	  0.570488	  0.490103	  0.054818	
8.3125	  0.576063	  0.482821	  0.053506	
8.375	  0.576202	  0.473299	  0.052403	
8.4375	  0.564213	  0.458601	  0.050616	
8.5	  0.546732	  0.440670	  0.048300	
8.5625	  0.534720	  0.421094	  0.046531	
8.625	  0.524270	  0.393829	  0.045778	
8.6875	  0.498388	  0.349401	  0.045428	
8.75	  0.447196	  0.285594	  0.045599	
8.8125	  0.375958	  0.212183	  0.048173	
8.875	  0.297933	  0.144694	  0.053304	
8.9375	  0.227234	  0.094111	  0.056111	
9	  0.173453	  0.062473	  0.051957	
9.0625	  0.136823	  0.045468	  0.044051	
9.125	  0.108953	  0.037121	  0.040252	
9.1875	  0.080948	  0.032979	  0.043354	
9.25	  0.051548	  0.030595	  0.048302	
9.3125	  0.026291	  0.028594	  0.047695	
9.375	  0.010024	  0.026342	  0.038514	
9.4375	  0.002632	  0.024114	  0.024408	
9.5	  0.000882	  0.022583	  0.011692	
9.5625	  0.001603	  0.021896	  0.003865	
9.625	  0.002946	  0.021508	  0.000606	
9.6875	  0.004178	  0.020822	  0.000090	
9.75	  0.005089	  0.019760	  0.000666	
9.8125	  0.005538	  0.018721	  0.001298	
9.875	  0.005391	  0.018089	  0.001595	
9.9375	  0.004706	  0.017842	  0.001593	
10	  0.003759	  0.017669	  0.001471	
10.0625	  0.002883	  0.017361	  0.001360	
10.125	  0.002302	  0.016939	  0.001305	
10.1875	  0.002059	  0.016500	  0.001294	
10.25	  0.002064	  0.016119	  0.001299	
10.3125	  0.002180	  0.015877	  0.001295	
10.375	  0.002296	  0.015784	  0.001274	
10.4375	  0.002358	  0.015692	  0.001241	
10.5	  0.002342	  0.015497	  0.001212	
10.5625	  0.002253	  0.015284	  0.001189	
10.625	  0.002157	  0.015150	  0.001172	
10.6875	  0.002166	  0.015053	  0.001165	
10.75	  0.002379	  0.014876	  0.001174	
10.8125	  0.002855	  0.014572	  0.001203	
10.875	  0.003563	  0.014221	  0.001253	
10.9375	  0.004217	  0.013969	  0.001299	
11	  0.004373	  0.013922	  0.001314	
11.0625	  0.003900	  0.014100	  0.001286	
11.125	  0.003137	  0.014441	  0.001220	
11.1875	  0.002478	  0.014838	  0.001133	
11.25	  0.002076	  0.015200	  0.001068	
11.3125	  0.001924	  0.015487	  0.001076	
11.375	  0.001971	  0.015705	  0.001194	
11.4375	  0.002137	  0.015869	  0.001438	
11.5	  0.002321	  0.015998	  0.001778	
11.5625	  0.002438	  0.016111	  0.002067	
11.625	  0.002445	  0.016230	  0.002060	
11.6875	  0.002343	  0.016365	  0.001619	
11.75	  0.002173	  0.016509	  0.000867	
